<svg width="200" height="200" viewBox="0 0 200 200" fill="none" xmlns="http://www.w3.org/2000/svg">
<circle cx="100.498" cy="99.5025" r="97.0025" stroke="#0C3067" stroke-width="5"/>
<mask id="mask0_286_87" style="mask-type:alpha" maskUnits="userSpaceOnUse" x="0" y="0" width="200" height="200">
<circle cx="100.498" cy="99.5025" r="97.0025" fill="#D9D9D9" stroke="#0C3067" stroke-width="5"/>
</mask>
<g mask="url(#mask0_286_87)">
<path d="M203.47 -9.95015C203.47 3.82906 193.283 16.8429 175.622 26.5567C158.05 36.221 133.605 42.2762 106.468 42.2762C79.3299 42.2762 54.885 36.221 37.3136 26.5567C19.6521 16.8429 9.46518 3.82906 9.46518 -9.95015C9.46518 -23.7294 19.6521 -36.7432 37.3136 -46.457C54.885 -56.1213 79.3299 -62.1765 106.468 -62.1765C133.605 -62.1765 158.05 -56.1213 175.622 -46.457C193.283 -36.7432 203.47 -23.7294 203.47 -9.95015Z" stroke="#0C3067" stroke-width="5"/>
</g>
<path d="M0.995026 99.5024H199.005" stroke="#0C3067" stroke-width="5"/>
<mask id="mask1_286_87" style="mask-type:alpha" maskUnits="userSpaceOnUse" x="0" y="0" width="200" height="200">
<circle cx="99.5025" cy="100.498" r="97.0025" fill="#D9D9D9" stroke="#0C3067" stroke-width="5"/>
</mask>
<g mask="url(#mask1_286_87)">
<path d="M196.505 204.975C196.505 218.754 186.318 231.768 168.657 241.482C151.085 251.146 126.64 257.202 99.5025 257.202C72.3647 257.202 47.9198 251.146 30.3484 241.482C12.6869 231.768 2.5 218.754 2.5 204.975C2.5 191.196 12.6869 178.182 30.3484 168.468C47.9198 158.804 72.3647 152.749 99.5025 152.749C126.64 152.749 151.085 158.804 168.657 168.468C186.318 178.182 196.505 191.196 196.505 204.975Z" stroke="#0C3067" stroke-width="5"/>
</g>
<path d="M158.694 99.5025C158.694 126.597 151.99 151.006 141.282 168.559C130.548 186.157 116.056 196.505 100.498 196.505C84.9394 196.505 70.4471 186.157 59.7129 168.559C49.0052 151.006 42.301 126.597 42.301 99.5025C42.301 72.4082 49.0052 47.999 59.7129 30.4455C70.4471 12.8484 84.9394 2.5 100.498 2.5C116.056 2.5 130.548 12.8484 141.282 30.4455C151.99 47.999 158.694 72.4082 158.694 99.5025Z" stroke="#0C3067" stroke-width="5"/>
<path d="M100.497 0.995117V199.005" stroke="#0C3067" stroke-width="5"/>
</svg>
