<svg width="200" height="250" viewBox="0 0 200 250" fill="none" xmlns="http://www.w3.org/2000/svg">
<rect x="2.5" y="2.5" width="195" height="245" stroke="#0C3067" stroke-width="5"/>
<rect x="24.8464" y="21.2227" width="39.6927" height="40.1542" stroke="#0C3067" stroke-width="5"/>
<path d="M26.257 82.5991H166.48" stroke="#0C3067" stroke-width="5"/>
<path d="M26.257 102.423H166.48" stroke="#0C3067" stroke-width="5"/>
<path d="M26.257 160.793H166.48" stroke="#0C3067" stroke-width="5"/>
<path d="M26.257 180.617H166.48" stroke="#0C3067" stroke-width="5"/>
<path d="M26.257 199.339H166.48" stroke="#0C3067" stroke-width="5"/>
<path d="M26.257 219.163H166.48" stroke="#0C3067" stroke-width="5"/>
<path d="M34.256 141.32C31.5893 141.32 29.4453 140.979 27.824 140.296V137.224C28.7413 137.565 29.7227 137.843 30.768 138.056C31.8347 138.269 32.8907 138.376 33.936 138.376C35.5787 138.376 36.8053 138.184 37.616 137.8C38.448 137.416 38.864 136.648 38.864 135.496C38.864 134.792 38.6933 134.227 38.352 133.8C38.0107 133.373 37.4453 133.011 36.656 132.712C35.8667 132.392 34.7787 132.061 33.392 131.72C31.1733 131.144 29.616 130.419 28.72 129.544C27.824 128.648 27.376 127.421 27.376 125.864C27.376 124.051 28.0373 122.632 29.36 121.608C30.6827 120.584 32.656 120.072 35.28 120.072C36.4747 120.072 37.5947 120.157 38.64 120.328C39.7067 120.499 40.5387 120.691 41.136 120.904V123.976C39.5147 123.357 37.7227 123.048 35.76 123.048C34.224 123.048 33.0293 123.251 32.176 123.656C31.3227 124.061 30.896 124.797 30.896 125.864C30.896 126.483 31.0453 126.984 31.344 127.368C31.6427 127.752 32.1547 128.083 32.88 128.36C33.6267 128.637 34.6507 128.947 35.952 129.288C37.6373 129.715 38.9387 130.227 39.856 130.824C40.7947 131.4 41.4453 132.083 41.808 132.872C42.192 133.64 42.384 134.515 42.384 135.496C42.384 137.309 41.712 138.739 40.368 139.784C39.024 140.808 36.9867 141.32 34.256 141.32ZM55.43 141.32C52.038 141.32 49.4673 140.392 47.718 138.536C45.99 136.68 45.126 134.173 45.126 131.016C45.126 128.755 45.4887 126.813 46.214 125.192C46.9607 123.549 48.0913 122.291 49.606 121.416C51.1207 120.52 53.0513 120.072 55.398 120.072C56.5927 120.072 57.6807 120.168 58.662 120.36C59.6647 120.531 60.5927 120.765 61.446 121.064V124.104C60.5927 123.763 59.6753 123.507 58.694 123.336C57.734 123.144 56.7207 123.048 55.654 123.048C53.094 123.048 51.2807 123.731 50.214 125.096C49.1687 126.461 48.646 128.435 48.646 131.016C48.646 133.427 49.222 135.261 50.374 136.52C51.526 137.757 53.3073 138.376 55.718 138.376C56.6993 138.376 57.6807 138.301 58.662 138.152C59.6647 137.981 60.6033 137.725 61.478 137.384V140.456C60.6247 140.733 59.6967 140.947 58.694 141.096C57.7127 141.245 56.6247 141.32 55.43 141.32ZM64.8598 141V120.392H68.3478V129.352H78.2678V120.392H81.7558V141H78.2678V132.04H68.3478V141H64.8598ZM94.9173 141.32C91.6533 141.32 89.2106 140.467 87.5893 138.76C85.9679 137.032 85.1573 134.365 85.1573 130.76C85.1573 127.005 85.9679 124.285 87.5893 122.6C89.2106 120.915 91.6533 120.072 94.9173 120.072C98.2026 120.072 100.645 120.915 102.245 122.6C103.867 124.285 104.677 127.005 104.677 130.76C104.677 134.365 103.867 137.032 102.245 138.76C100.645 140.467 98.2026 141.32 94.9173 141.32ZM94.9173 138.376C97.0719 138.376 98.6506 137.789 99.6533 136.616C100.677 135.421 101.189 133.469 101.189 130.76C101.189 127.901 100.677 125.907 99.6533 124.776C98.6506 123.624 97.0719 123.048 94.9173 123.048C92.7839 123.048 91.2053 123.624 90.1813 124.776C89.1786 125.907 88.6773 127.901 88.6773 130.76C88.6773 133.469 89.1786 135.421 90.1813 136.616C91.2053 137.789 92.7839 138.376 94.9173 138.376ZM108.079 141V120.392H111.567V138.312H122.127V141H108.079ZM124.283 141L132.155 120.392H136.059L143.867 141H140.283L138.235 135.688H129.947L127.899 141H124.283ZM130.491 133H137.659L134.075 123.56L130.491 133ZM147.297 141V120.392H156.769C159.073 120.392 160.748 120.989 161.793 122.184C162.86 123.357 163.393 124.957 163.393 126.984C163.393 128.435 163.031 129.672 162.305 130.696C161.58 131.72 160.535 132.435 159.169 132.84C159.553 133.117 159.852 133.416 160.065 133.736C160.279 134.056 160.492 134.483 160.705 135.016L163.297 141H159.713L157.185 135.24C156.951 134.685 156.663 134.291 156.321 134.056C156.001 133.821 155.447 133.704 154.657 133.704H150.785V141H147.297ZM150.785 130.888H155.841C157.1 130.888 158.092 130.579 158.817 129.96C159.543 129.341 159.905 128.349 159.905 126.984C159.905 124.403 158.657 123.112 156.161 123.112H150.785V130.888Z" fill="#0C3067"/>
</svg>
